<?xml version="1.0" encoding="UTF-8"?>
<svg width="18px" height="19px" viewBox="0 0 18 19" version="1.1" xmlns="http://www.w3.org/2000/svg" xmlns:xlink="http://www.w3.org/1999/xlink">
    <title>icon-login</title>
    <g id="Symbols" stroke="none" stroke-width="1" fill="none" fill-rule="evenodd">
        <g id="header" transform="translate(-318.000000, -22.000000)" fill="#0350A0">
            <g id="{row}" transform="translate(12.000000, 0.000000)">
                <g id="icon-login" transform="translate(303.000000, 20.000000)">
                    <path d="M12,1.99999996 C9.24299999,1.99999996 6.99999998,4.24299997 6.99999998,6.99999996 C6.99999998,9.75699999 9.24299999,12 12,12 C14.757,12 17,9.75699999 17,6.99999996 C17,4.24299997 14.757,1.99999996 12,1.99999996 Z M12,9.99999997 C10.346,9.99999997 8.99999999,8.65399999 8.99999999,6.99999997 C8.99999999,5.34599997 10.346,3.99999997 12,3.99999997 C13.654,3.99999997 15,5.34599997 15,6.99999997 C15,8.65399999 13.654,9.99999997 12,9.99999997 Z M21,21 L21,20 C21,16.141 17.859,13 14,13 L9.99999996,13 C6.13999998,13 2.99999996,16.141 2.99999996,20 L2.99999996,21 L4.99999996,21 L4.99999996,20 C4.99999996,17.243 7.24299998,15 9.99999996,15 L14,15 C16.757,15 19,17.243 19,20 L19,21 L21,21 Z" id="Combined-Shape"></path>
                </g>
            </g>
        </g>
    </g>
</svg>
