<?xml version="1.0" encoding="utf-8"?>
<svg version="1.1" id="Слой_1" xmlns="http://www.w3.org/2000/svg" xmlns:xlink="http://www.w3.org/1999/xlink" x="0px" y="0px"
	 viewBox="0 0 24 24" style="enable-background:new 0 0 24 24;" xml:space="preserve">
<style type="text/css">
	.st0{fill-rule:evenodd;clip-rule:evenodd;fill:#0350A0;}
</style>
<path id="Combined-Shape" class="st0" d="M12,2.5c-2.8,0-5,2.2-5,5s2.2,5,5,5s5-2.2,5-5S14.8,2.5,12,2.5z M12,10.5c-1.7,0-3-1.3-3-3
	s1.3-3,3-3s3,1.3,3,3S13.7,10.5,12,10.5z M21,21.5v-1c0-3.9-3.1-7-7-7h-4c-3.9,0-7,3.1-7,7v1h2v-1c0-2.8,2.2-5,5-5h4
	c2.8,0,5,2.2,5,5v1H21z"/>
</svg>
