<?xml version="1.0" encoding="UTF-8"?>
<svg width="50px" height="50px" viewBox="0 0 50 50" version="1.1" xmlns="http://www.w3.org/2000/svg" xmlns:xlink="http://www.w3.org/1999/xlink">
    <title>bat-icon / bat-icon-01</title>
    <defs>
        <filter id="filter-1">
            <feColorMatrix in="SourceGraphic" type="matrix" values="0 0 0 0 1.000000 0 0 0 0 1.000000 0 0 0 0 1.000000 0 0 0 1.000000 0"></feColorMatrix>
        </filter>
        <filter id="filter-2">
            <feColorMatrix in="SourceGraphic" type="matrix" values="0 0 0 0 1.000000 0 0 0 0 1.000000 0 0 0 0 1.000000 0 0 0 1.000000 0"></feColorMatrix>
        </filter>
    </defs>
    <g id="site" stroke="none" stroke-width="1" fill="none" fill-rule="evenodd">
        <g id="03-account-&gt;-game-&gt;-info" transform="translate(-268.000000, -690.000000)">
            <g id="info_block" transform="translate(17.000000, 686.000000)">
                <g id="block_2" transform="translate(193.000000, 0.000000)">
                    <g id="bat-icon-/-bat-icon-01" transform="translate(54.000000, 0.000000)" filter="url(#filter-1)">
                        <g filter="url(#filter-2)" id="004-shopping-bag">
                            <g transform="translate(4.350000, 4.350000)">
                                <path d="M45.294375,37.59125 C45.8045866,37.59125 46.21875,37.1770866 46.21875,36.666875 C46.21875,36.1566634 45.8045866,35.7425 45.294375,35.7425 C44.7841634,35.7425 44.37,36.1566634 44.37,36.666875 C44.37,37.1770866 44.7841634,37.59125 45.294375,37.59125 Z" id="Path" fill="#000000" fill-rule="nonzero"></path>
                                <path d="M45.294375,33.2775 C45.8049478,33.2775 46.21875,32.836111 46.21875,32.2915 L46.21875,24.4035 C46.21875,23.858889 45.8049478,23.4175 45.294375,23.4175 C44.7838022,23.4175 44.37,23.858889 44.37,24.4035 L44.37,32.2915 C44.37,32.836111 44.7838022,33.2775 45.294375,33.2775 Z" id="Path" fill="#000000" fill-rule="nonzero"></path>
                                <path d="M0.962890625,35.2417969 L1.92578125,35.2417969 L1.92578125,48.3371094 C1.92578125,48.868956 2.35682521,49.3 2.88867188,49.3 L46.4113281,49.3 C48.0042351,49.3 49.3,48.0042351 49.3,46.4113281 L49.3,10.5917969 C49.3,10.0599502 48.868956,9.62890625 48.3371094,9.62890625 L41.0191406,9.62890625 L41.0191406,8.66601562 C41.0191406,3.8876709 37.1314697,0 32.353125,0 C27.5838074,0 23.6871094,3.85870898 23.6871094,8.66601562 L23.6871094,9.62890625 L16.3691406,9.62890625 C15.837294,9.62890625 15.40625,10.0599502 15.40625,10.5917969 L15.40625,20.8003181 C14.4629181,21.51045 13.8122146,22.544429 13.57751,23.6931274 C13.545163,23.6897423 13.5128159,23.6871094 13.4804688,23.6871094 C13.4481216,23.6871094 13.4161506,23.6893662 13.3841797,23.6901184 C12.9380906,21.4939003 10.9919983,19.8355469 8.66601562,19.8355469 C6.01129613,19.8355469 3.8515625,21.9952805 3.8515625,24.65 C3.8515625,25.7328758 4.21114197,26.7333794 4.81708605,27.5386719 L0.962890625,27.5386719 C0.431043958,27.5386719 0,27.9697158 0,28.5015625 L0,34.2789062 C0,34.8107529 0.431043958,35.2417969 0.962890625,35.2417969 Z M3.39942255,35.4720533 L8.3185377,35.4720533 L8.3185377,47.8682235 L3.39942255,47.8682235 L3.39942255,35.4720533 Z M10.0224355,35.4720533 L16.4528702,35.4720533 L16.4528702,47.8682235 L10.0224355,47.8682235 L10.0224355,35.4720533 Z M23.5154637,47.8682235 C21.2166669,47.8682235 20.6686566,47.8682235 18.156768,47.8682235 L18.156768,35.4720533 L23.5154637,35.4720533 L23.5154637,47.8682235 Z M18.0772249,33.5044073 L18.0772249,29.2174507 L25.5793988,29.2174507 L25.5793988,33.5044073 L18.0772249,33.5044073 Z M18.2446841,27.6014691 C18.2078431,27.6014691 18.1714207,27.5993759 18.1349982,27.5981199 C17.9771679,26.822365 17.6502038,26.0926613 17.172945,25.4579908 C16.9757951,25.1344517 16.788799,24.8651214 16.6119565,24.65 C16.2465812,24.2055364 15.5402174,24.1141304 15.5402174,23.0423913 C15.5402174,22.3278986 16.0844599,21.7656541 17.172945,21.3556581 C17.5158178,21.2346688 17.8779484,21.1710343 18.2446841,21.1710343 C20.0176588,21.1710343 21.4599015,22.613277 21.4599015,24.3862517 C21.4599015,26.1592264 20.0176588,27.6014691 18.2446841,27.6014691 Z M13.3425659,25.4579908 L14.2449116,25.5752352 C15.2075223,25.8511782 16.0076619,26.6015421 16.3521494,27.6014691 L10.4575842,27.6014691 C10.8871756,26.3632849 12.015515,25.4839521 13.3425659,25.4579908 Z M16.4528702,29.2174507 L16.4528702,33.5044073 L10.0224355,33.5044073 L10.0224355,29.2174507 L16.4528702,29.2174507 Z M46.8844005,47.8682235 L25.0435292,47.8682235 L25.0435292,43.9329314 L47.8682235,43.9329314 L47.8682235,46.8844005 C47.8682235,47.4270404 47.4270404,47.8682235 46.8844005,47.8682235 Z M25.4747368,8.46506454 C25.4747368,4.5857666 28.5843053,1.43177649 32.4410411,1.43177649 C36.2822271,1.43177649 39.4073454,4.58694407 39.4073454,8.46506454 L39.4073454,9.46981997 L25.4747368,9.46981997 L25.4747368,8.46506454 Z M23.666177,11.2700068 L23.666177,15.7955927 L22.6823539,15.7955927 C22.1389454,15.7955927 21.6985309,16.2360072 21.6985309,16.7794158 C21.6985309,17.3228243 22.1389454,17.7632388 22.6823539,17.7632388 L26.6176461,17.7632388 C27.1610546,17.7632388 27.6014691,17.3228243 27.6014691,16.7794158 C27.6014691,16.2360072 27.1610546,15.7955927 26.6176461,15.7955927 L25.633823,15.7955927 L25.633823,11.2700068 L39.4073454,11.2700068 L39.4073454,15.7955927 L38.4235224,15.7955927 C37.8801139,15.7955927 37.4396994,16.2360072 37.4396994,16.7794158 C37.4396994,17.3228243 37.8801139,17.7632388 38.4235224,17.7632388 L42.3588145,17.7632388 C42.9022231,17.7632388 43.3426376,17.3228243 43.3426376,16.7794158 C43.3426376,16.2360072 42.9022231,15.7955927 42.3588145,15.7955927 L41.3749915,15.7955927 L41.3749915,11.2700068 L47.8682235,11.2700068 L47.8682235,41.9652853 L25.0435292,41.9652853 L25.0435292,35.4720533 L26.0273522,35.4720533 C26.5707608,35.4720533 27.0111753,35.0316388 27.0111753,34.4882303 L27.0111753,28.5852921 C27.0111753,28.0418836 26.5707608,27.6014691 26.0273522,27.6014691 L22.08937,27.6014691 C22.7084867,26.7786702 23.0758832,25.7564166 23.0758832,24.65 C23.0758832,21.9375692 20.8691988,19.7308849 18.156768,19.7308849 C17.825112,19.7308849 17.4957619,19.765088 17.172945,19.8308044 L17.172945,11.2700068 L23.666177,11.2700068 Z M5.36706861,24.3862517 C5.36706861,22.613277 6.82209965,21.1710343 8.61079534,21.1710343 C10.1929568,21.1710343 11.5136773,22.3001282 11.7975034,23.7880036 C10.2254786,24.4934256 9.07370217,25.9201783 8.72272078,27.5981199 C8.68555307,27.5993759 8.64838537,27.6014691 8.61079534,27.6014691 C6.82209965,27.6014691 5.36706861,26.1592264 5.36706861,24.3862517 Z M1.43177649,29.2174507 L8.3185377,29.2174507 L8.3185377,33.5044073 L1.43177649,33.5044073 L1.43177649,29.2174507 Z" id="Shape" fill="#000000" fill-rule="nonzero"></path>
                            </g>
                        </g>
                    </g>
                </g>
            </g>
        </g>
    </g>
</svg>