<?xml version="1.0" encoding="UTF-8"?>
<svg width="46px" height="46px" viewBox="0 0 46 46" version="1.1" xmlns="http://www.w3.org/2000/svg" xmlns:xlink="http://www.w3.org/1999/xlink">
    <title>bat-icon / bat-icon-01</title>
    <defs>
        <filter id="filter-1">
            <feColorMatrix in="SourceGraphic" type="matrix" values="0 0 0 0 1.000000 0 0 0 0 1.000000 0 0 0 0 1.000000 0 0 0 1.000000 0"></feColorMatrix>
        </filter>
        <filter id="filter-2">
            <feColorMatrix in="SourceGraphic" type="matrix" values="0 0 0 0 1.000000 0 0 0 0 1.000000 0 0 0 0 1.000000 0 0 0 1.000000 0"></feColorMatrix>
        </filter>
    </defs>
    <g id="site" stroke="none" stroke-width="1" fill="none" fill-rule="evenodd">
        <g id="03-account-&gt;-game-&gt;-info" transform="translate(-76.000000, -692.000000)">
            <g id="info_block" transform="translate(17.000000, 686.000000)">
                <g id="bat-icon-/-bat-icon-01" transform="translate(53.000000, 0.000000)" filter="url(#filter-1)">
                    <g filter="url(#filter-2)" id="001-">
                        <g transform="translate(6.850725, 6.887500)">
                            <path d="M43.6151676,8.98815993 L40.0083123,8.98815993 C40.1130842,8.838878 40.2080548,8.68204622 40.2911963,8.51766451 C40.7684151,7.57118294 40.8329681,6.45654469 40.4682945,5.45927287 L39.3752876,2.47638012 C39.0109519,1.48013785 38.2454415,0.679163244 37.275795,0.279019051 C36.3051345,-0.121468209 35.2057061,-0.0895527881 34.2590418,0.366872312 L25.608943,4.53818634 C25.1814063,4.22795451 24.6585609,4.04469806 24.0941448,4.04469806 L20.2047436,4.04469806 C19.6403275,4.04469806 19.1171442,4.22829767 18.6896075,4.53852949 L10.0398466,0.366529157 C9.09318229,-0.0895527881 7.99375388,-0.121468209 7.02309342,0.279019051 C6.05344691,0.679163244 5.2879365,1.48013785 4.92360082,2.47603697 L3.83059392,5.45961602 C3.46592028,6.45654469 3.53047328,7.57118294 4.00803009,8.51766451 C4.09083363,8.68204622 4.18614217,8.83922115 4.29091406,8.98815993 L0.68372081,8.98815993 C0.306204126,8.98815993 0,9.29873491 0,9.68240661 L0,14.6800903 C0,15.0634188 0.306204126,15.374337 0.68372081,15.374337 C1.06123741,15.374337 1.36744162,15.0634188 1.36744162,14.6800903 L1.36744162,10.3763101 L6.11630997,10.3763101 C6.19235403,10.403421 6.26941212,10.4284729 6.34748398,10.4504362 L12.0872913,12.0547878 C10.8117786,14.0393793 9.6866641,16.1269237 8.72343911,18.2899671 L1.36744162,18.2899671 L1.36744162,17.4567338 C1.36744162,17.0734053 1.06123741,16.7628304 0.68372081,16.7628304 C0.306204126,16.7628304 0,17.0734053 0,17.4567338 L0,18.9842138 C0,19.3675422 0.306204126,19.6784604 0.68372081,19.6784604 L3.12186302,19.6784604 L3.12186302,44.2557533 C3.12186302,44.6394249 3.42806723,44.95 3.80558383,44.95 L40.4933046,44.95 C40.8708212,44.95 41.1770254,44.6394249 41.1770254,44.2557533 L41.1770254,40.2247986 C41.1770254,39.8414701 40.8708212,39.530552 40.4933046,39.530552 C40.11545,39.530552 39.8095838,39.8414701 39.8095838,40.2247986 L39.8095838,43.5618498 L26.251093,43.5618498 L26.251093,20.1053723 C28.1876822,23.8298702 29.4986822,27.8796996 30.1019652,32.0640543 C30.1418462,32.340998 30.3419266,32.5664651 30.6092638,32.6357869 C30.6653674,32.6505435 30.722147,32.6574069 30.7785886,32.6574069 C30.9898222,32.6574069 31.1932824,32.5578857 31.3244162,32.3811496 C32.3072437,31.0571736 33.2211246,29.6398534 34.0461183,28.160075 C35.4277548,29.1154792 36.7691724,30.1807 38.0419814,31.333774 C38.2565946,31.5280122 38.5682064,31.5654184 38.8213487,31.426775 C39.074491,31.2884747 39.215426,31.0039812 39.1735173,30.7150263 C38.6276898,26.9342475 37.6100509,23.2162701 36.1675792,19.6784604 L39.8092458,19.6784604 L39.8092458,37.4478119 C39.8092458,37.8314836 40.11545,38.1420586 40.4929666,38.1420586 C40.8708212,38.1420586 41.1766873,37.8314836 41.1766873,37.4478119 L41.1766873,19.6784604 L43.6151676,19.6784604 C43.9926843,19.6784604 44.2985507,19.3675422 44.2985507,18.9842138 L44.2985507,9.68240661 C44.2985507,9.29873491 43.9930222,8.98815993 43.6151676,8.98815993 Z M34.8454261,1.62084038 C35.4554686,1.32708104 36.1354718,1.30717674 36.761061,1.5652457 C37.3856364,1.8229715 37.8587996,2.31817564 38.0936913,2.96025937 L39.1863603,5.94280896 C39.42159,6.58523593 39.3813711,7.27502134 39.073815,7.88484649 C38.766597,8.49432849 38.2390201,8.93016307 37.5887586,9.11170357 L26.7056676,12.1539659 L26.7056676,8.81760108 C29.1519212,7.2966415 35.2503186,4.15966231 36.7681585,6.33506006 C36.9861515,6.64769415 37.4126743,6.72216349 37.7209063,6.50047132 C38.0291383,6.27877907 38.1021406,5.84534675 37.8838097,5.53271266 C36.7123928,3.8535486 34.2438329,3.77187257 30.5460627,5.29042988 C29.0228153,5.91569806 27.6165067,6.67892326 26.7056676,7.208445 L26.7056676,6.69608206 C26.7056676,6.32442156 26.6296235,5.9702631 26.4930822,5.64870646 L34.8454261,1.62084038 Z M20.2047436,5.43284828 L24.0941448,5.43284828 C24.7802315,5.43284828 25.3382261,5.99977635 25.3382261,6.69608206 L25.3382261,12.4343413 C25.3382261,13.1309903 24.7802315,13.6975751 24.0941448,13.6975751 L20.2047436,13.6975751 C19.5186569,13.6975751 18.9606623,13.1309903 18.9606623,12.4343413 L18.9606623,6.69608206 C18.9606623,5.99943311 19.5186569,5.43284828 20.2047436,5.43284828 L20.2047436,5.43284828 Z M19.055633,18.2896239 C19.7096121,17.1863105 20.4213847,16.1169716 21.1872331,15.0860685 L23.1109793,15.0860685 C23.8771657,16.1169716 24.5889383,17.1863105 25.2425795,18.2896239 L19.055633,18.2896239 Z M5.22507335,7.88484649 C4.91751733,7.27502134 4.87729844,6.58523593 5.11219018,5.9431522 L6.20553503,2.95991621 C6.44008882,2.31817564 6.91325199,1.8229715 7.53782738,1.5652457 C8.16307868,1.30717674 8.8434198,1.32708104 9.45312426,1.62084038 L17.8058062,5.64939286 C17.6692649,5.97060635 17.5932208,6.32442156 17.5932208,6.69642521 L17.5932208,7.24825351 C16.6854234,6.71770222 15.2473453,5.9318273 13.6852309,5.29042988 C9.98779869,3.77187257 7.51890086,3.8535486 6.34748398,5.53271266 C6.12915301,5.84534675 6.20215533,6.27877907 6.51038734,6.50047132 C6.81861936,6.72216349 7.24514212,6.6480373 7.46313513,6.33506006 C8.99516996,4.1390717 15.1939455,7.35601107 17.5932208,8.85981176 L17.5932208,12.1539659 L6.71046777,9.11204673 C6.05986834,8.93016307 5.53229142,8.49432849 5.22507335,7.88484649 Z M17.9001009,13.67973 C18.2404404,14.326275 18.8366261,14.8139293 19.5507645,15.0016469 C16.3531953,19.5315807 14.1519726,24.7365432 13.1194629,30.2074678 C12.3931575,29.1298927 11.7141683,28.0004978 11.0926347,26.8340398 C11.0017198,26.6631378 10.8449,26.5389078 10.6593524,26.4912062 C10.4741429,26.4435047 10.2777801,26.4767928 10.1179185,26.5828344 C8.97928518,27.3367938 7.86430993,28.16385 6.78752578,29.0519915 C7.89641745,23.1418006 10.1875412,17.4430067 13.4729835,12.4422344 L17.9001009,13.67973 Z M4.48930464,19.6784604 L8.13130919,19.6784604 C6.68883746,23.2162701 5.67119863,26.9339043 5.12503314,30.7150263 C5.08346235,31.0039812 5.22405941,31.2884747 5.47720177,31.426775 C5.730682,31.5650752 6.04195576,31.5280122 6.25656908,31.333774 C7.52937806,30.1807 8.87079564,29.1154792 10.2527701,28.160075 C11.0777638,29.6398534 11.9913068,31.0568303 12.9744722,32.3811496 C13.105606,32.5578857 13.3090662,32.6577502 13.5202998,32.6577502 C13.5767414,32.6577502 13.633521,32.6505435 13.6896246,32.6357869 C13.9569618,32.5664651 14.1567043,32.340998 14.1965851,32.0640543 C14.8002062,27.8796996 16.1112062,23.829527 18.0474575,20.1050291 L18.0474575,43.5618498 L4.48930464,43.5618498 L4.48930464,19.6784604 Z M19.414899,43.5618498 L19.414899,19.6784604 L24.8839894,19.6784604 L24.8839894,43.5618498 L19.414899,43.5618498 Z M34.1809699,26.5828344 C34.0211083,26.4767928 33.8244076,26.4438478 33.6395359,26.4915494 C33.4543264,26.539251 33.2971686,26.663481 33.2062537,26.8340398 C32.5847201,28.0004978 31.9057309,29.1302358 31.1794255,30.2074678 C30.1469158,24.7362001 27.9456931,19.5315807 24.747786,15.0019902 C25.4619244,14.8146156 26.058448,14.3266182 26.3987875,13.67973 L30.8269189,12.4418912 C34.1116852,17.4436931 36.4028089,23.142487 37.5117007,29.0519915 C36.4345785,28.16385 35.3196032,27.3367938 34.1809699,26.5828344 L34.1809699,26.5828344 Z M42.9314468,18.2899671 L35.5757873,18.2899671 C34.6125622,16.1269237 33.4874478,14.0393793 32.2122731,12.0547878 L37.9514044,10.4504362 C38.0294763,10.4284729 38.1065344,10.403421 38.1825784,10.3763101 L42.9314468,10.3763101 L42.9314468,18.2899671 Z" id="Shape" fill="#000000" fill-rule="nonzero"></path>
                        </g>
                    </g>
                </g>
            </g>
        </g>
    </g>
</svg>