<?xml version="1.0" encoding="utf-8"?>
<svg version="1.1" id="Слой_1" xmlns="http://www.w3.org/2000/svg" xmlns:xlink="http://www.w3.org/1999/xlink" x="0px" y="0px"
	 viewBox="0 0 24 24" style="enable-background:new 0 0 24 24;" xml:space="preserve">
<style type="text/css">
	.st0{fill-rule:evenodd;clip-rule:evenodd;fill:#0350A0;}
</style>
<g id="Symbols">
	<g id="header" transform="translate(-242.000000, -22.000000)">
		<g id="_x7B_row_x7D_" transform="translate(12.000000, 0.000000)">
			<path id="icons_x2F_bx-phone" class="st0" d="M247.2,34.8c-0.4-0.4-1-0.4-1.4,0l-1.6,1.6c-0.7-0.2-2.1-0.7-3-1.6
				c-0.9-0.9-1.4-2.3-1.6-3l1.6-1.6c0.4-0.4,0.4-1,0-1.4l-4-4c-0.4-0.4-1-0.4-1.4,0l-2.7,2.7c-0.4,0.4-0.6,0.9-0.6,1.4
				c0,1.4,0.4,6.4,4.3,10.3s8.8,4.3,10.3,4.3c0,0,0,0,0,0c0.5,0,1-0.2,1.4-0.6l2.7-2.7c0.4-0.4,0.4-1,0-1.4L247.2,34.8z M247.1,41.5
				c-1.2,0-5.5-0.4-8.9-3.7c-3.4-3.4-3.7-7.7-3.7-8.9l2-2l2.6,2.6l-1.3,1.3c-0.2,0.2-0.3,0.6-0.3,0.9c0,0.1,0.6,2.8,2.3,4.5
				c1.7,1.7,4.4,2.2,4.5,2.3c0.3,0.1,0.7,0,0.9-0.3l1.3-1.3l2.6,2.6L247.1,41.5z"/>
		</g>
	</g>
</g>
</svg>
