<?xml version="1.0" encoding="UTF-8"?>
<svg width="50px" height="51px" viewBox="0 0 50 51" version="1.1" xmlns="http://www.w3.org/2000/svg" xmlns:xlink="http://www.w3.org/1999/xlink">
    <title>bat-icon / bat-icon-04</title>
    <defs>
        <filter id="filter-1">
            <feColorMatrix in="SourceGraphic" type="matrix" values="0 0 0 0 1.000000 0 0 0 0 0.803922 0 0 0 0 0.231373 0 0 0 1.000000 0"></feColorMatrix>
        </filter>
        <filter id="filter-2">
            <feColorMatrix in="SourceGraphic" type="matrix" values="0 0 0 0 0.524682 0 0 0 0 0.524682 0 0 0 0 0.524682 0 0 0 1.000000 0"></feColorMatrix>
        </filter>
    </defs>
    <g id="site" stroke="none" stroke-width="1" fill="none" fill-rule="evenodd">
        <g id="03-account-&gt;-game-&gt;-info" transform="translate(-48.000000, -1669.000000)">
            <g id="Group-5" transform="translate(17.000000, 1398.000000)">
                <g id="Group" transform="translate(0.000000, 56.000000)">
                    <g id="icon_info_01" transform="translate(24.000000, 208.000000)" filter="url(#filter-1)">
                        <g id="001-" filter="url(#filter-2)">
                            <g transform="translate(7.559420, 7.600000)">
                                <path d="M48.1270815,9.91796957 L44.1471032,9.91796957 C44.2627136,9.75324469 44.3675087,9.58018893 44.4592511,9.39880222 C44.9858374,8.35440876 45.0570683,7.12446311 44.6546698,6.02402524 L43.4485932,2.73255738 C43.0465676,1.63325556 42.2018665,0.749421511 41.1319117,0.307883091 C40.0608381,-0.134033885 38.8476757,-0.0988168697 37.8030806,0.40482462 L28.258144,5.00765389 C27.7863793,4.66532912 27.2094465,4.4631151 26.5866425,4.4631151 L22.2948895,4.4631151 C21.6720855,4.4631151 21.0947798,4.66570777 20.6230152,5.00803254 L11.0784514,0.404445967 C10.0338563,-0.0988168697 8.82069393,-0.134033885 7.74962033,0.307883091 C6.67966555,0.749421511 5.83496442,1.63325556 5.43293883,2.73217872 L4.22686226,6.02440389 C3.82446376,7.12446311 3.89569465,8.35440876 4.4226539,9.39880222 C4.51402331,9.58018893 4.61919136,9.75362334 4.73480172,9.91796957 L0.754450549,9.91796957 C0.337880415,9.91796957 0,10.260673 0,10.6840349 L0,16.1987203 C0,16.6217035 0.337880415,16.9647856 0.754450549,16.9647856 C1.17102059,16.9647856 1.5089011,16.6217035 1.5089011,16.1987203 L1.5089011,11.4497214 L6.74903169,11.4497214 C6.83294238,11.479637 6.91797199,11.5072805 7.00412025,11.5315159 L13.3377007,13.3018348 C11.9302385,15.4917288 10.6887328,17.7952261 9.62586385,20.1820326 L1.5089011,20.1820326 L1.5089011,19.2626028 C1.5089011,18.8396197 1.17102059,18.4969163 0.754450549,18.4969163 C0.337880415,18.4969163 0,18.8396197 0,19.2626028 L0,20.9480979 C0,21.3710811 0.337880415,21.7141633 0.754450549,21.7141633 L3.44481436,21.7141633 L3.44481436,48.8339347 C3.44481436,49.2572965 3.78269487,49.6 4.19926491,49.6 L44.6822671,49.6 C45.0988372,49.6 45.4367177,49.2572965 45.4367177,48.8339347 L45.4367177,44.3859846 C45.4367177,43.9630015 45.0988372,43.6199194 44.6822671,43.6199194 C44.2653242,43.6199194 43.9278166,43.9630015 43.9278166,44.3859846 L43.9278166,48.068248 L28.9667233,48.068248 L28.9667233,22.1852384 C31.1036494,26.2950292 32.55027,30.7638064 33.2159616,35.3810254 C33.2599682,35.6866184 33.4807466,35.9354098 33.7757394,36.0119027 C33.8376468,36.0281859 33.9003001,36.0357594 33.9625806,36.0357594 C34.1956658,36.0357594 34.4201737,35.9259428 34.564873,35.7309237 C35.6493723,34.2699846 36.6577926,32.7060451 37.5681306,31.0731862 C39.092695,32.1274253 40.5728799,33.3028414 41.9773588,34.5751989 C42.2141734,34.7895307 42.5580208,34.8308065 42.8373503,34.6778207 C43.1166798,34.5252135 43.2721943,34.2112896 43.2259501,33.8924429 C42.6236577,29.7205489 41.5007459,25.6179532 39.9090529,21.7141633 L43.9274436,21.7141633 L43.9274436,41.3217235 C43.9274436,41.7450854 44.2653242,42.0877888 44.6818942,42.0877888 C45.0988372,42.0877888 45.4363447,41.7450854 45.4363447,41.3217235 L45.4363447,21.7141633 L48.1270815,21.7141633 C48.5436516,21.7141633 48.8811594,21.3710811 48.8811594,20.9480979 L48.8811594,10.6840349 C48.8811594,10.260673 48.5440245,9.91796957 48.1270815,9.91796957 Z M38.4501254,1.78851353 C39.1232757,1.46436529 39.873624,1.44240192 40.5639294,1.72716767 C41.253116,2.01155475 41.7752271,2.55798691 42.034418,3.2664931 L43.2401217,6.5575823 C43.4996855,7.26646723 43.455306,8.02760976 43.1159338,8.70052027 C42.7769346,9.37305213 42.1947808,9.85397304 41.4772508,10.0542936 L29.4683229,13.4112727 L29.4683229,9.72976671 C32.1676372,8.05146648 38.8969033,4.5899722 40.5717611,6.9904111 C40.8123051,7.33538665 41.282951,7.41755972 41.623069,7.17293388 C41.9631871,6.92830794 42.0437414,6.45003779 41.8028245,6.10506225 C40.5102265,4.25219156 37.7862984,4.16206628 33.7060002,5.83771573 C32.0251754,6.52766682 30.4733867,7.36984636 29.4683229,7.9541462 L29.4683229,7.3887802 C29.4683229,6.97867207 29.3844122,6.58787653 29.2337458,6.23305541 L38.4501254,1.78851353 Z M22.2948895,5.99486707 L26.5866425,5.99486707 C27.3437037,5.99486707 27.9594218,6.62044287 27.9594218,7.3887802 L27.9594218,13.7206525 C27.9594218,14.4893686 27.3437037,15.1145656 26.5866425,15.1145656 L22.2948895,15.1145656 C21.5378283,15.1145656 20.9221102,14.4893686 20.9221102,13.7206525 L20.9221102,7.3887802 C20.9221102,6.62006412 21.5378283,5.99486707 22.2948895,5.99486707 L22.2948895,5.99486707 Z M21.0269054,20.181654 C21.7485374,18.9642047 22.5339417,17.7842445 23.3790158,16.6466962 L25.5017703,16.6466962 C26.3472174,17.7842445 27.1326216,18.9642047 27.8538808,20.181654 L21.0269054,20.181654 Z M5.76559818,8.70052027 C5.42622602,8.02760976 5.38184656,7.26646723 5.64103744,6.55796105 L6.84748693,3.26611444 C7.1063049,2.55798691 7.62841599,2.01155475 8.31760263,1.72716767 C9.00753509,1.44240192 9.75825633,1.46436529 10.4310337,1.78851353 L19.6477862,6.23381281 C19.4971199,6.58825528 19.4132092,6.97867207 19.4132092,7.38915885 L19.4132092,7.99807283 C18.4115017,7.41263693 16.8246569,6.54546461 15.1009445,5.83771573 C11.0210192,4.16206628 8.29671819,4.25219156 7.00412025,6.10506225 C6.76320333,6.45003779 6.84375761,6.92830794 7.18387569,7.17293388 C7.52399377,7.41755972 7.99463958,7.3357653 8.23518359,6.9904111 C9.92570479,4.56725153 16.765733,8.11697773 19.4132092,9.77634401 L19.4132092,13.4112727 L7.40465409,10.0546723 C6.68675127,9.85397304 6.10459743,9.37305213 5.76559818,8.70052027 Z M19.7518355,15.0948745 C20.1273825,15.8083034 20.7852426,16.3464047 21.5732573,16.5535414 C18.0449051,21.552089 15.6159698,27.295496 14.4766487,33.3323783 C13.6752082,32.1433298 12.9259789,30.897101 12.2401486,29.609975 C12.1398287,29.4213935 11.9667862,29.284312 11.7620441,29.2316758 C11.5576749,29.1790397 11.3409987,29.2157714 11.1645998,29.3327828 C9.90817675,30.164738 8.67785923,31.0773517 7.48968361,32.05737 C8.71328822,25.53578 11.2414247,19.2474557 14.8667404,13.7293621 L19.7518355,15.0948745 Z M4.95371546,21.7141633 L8.97247911,21.7141633 C7.38078616,25.6179532 6.25787435,29.7201703 5.65520898,33.8924429 C5.60933777,34.2112896 5.76447935,34.5252135 6.04380885,34.6778207 C6.32351118,34.8304279 6.66698566,34.7895307 6.90380036,34.5751989 C8.30827924,33.3028414 9.78846416,32.1274253 11.3134015,31.0731862 C12.2237394,32.7060451 13.2317868,34.2696059 14.316659,35.7309237 C14.4613584,35.9259428 14.6858662,36.0361381 14.9189515,36.0361381 C14.9812319,36.0361381 15.0438852,36.0281859 15.1057926,36.0119027 C15.4007854,35.9354098 15.6211909,35.6866184 15.6651974,35.3810254 C16.331262,30.7638064 17.7778827,26.2946505 19.9144358,22.1848597 L19.9144358,48.068248 L4.95371546,48.068248 L4.95371546,21.7141633 Z M21.4233368,48.068248 L21.4233368,21.7141633 L27.4581952,21.7141633 L27.4581952,48.068248 L21.4233368,48.068248 Z M37.7169323,29.3327828 C37.5405333,29.2157714 37.3234842,29.1794183 37.1194879,29.2320545 C36.9151187,29.2846908 36.7417033,29.4217721 36.6413834,29.609975 C35.9555532,30.897101 35.2063238,32.1437085 34.4048833,33.3323783 C33.2655623,27.2951173 30.8366269,21.552089 27.3079018,16.5539202 C28.0959166,16.347162 28.7541495,15.8086822 29.1296965,15.0948745 L34.0159105,13.7289834 C37.6404802,19.2482131 40.1686167,25.5365374 41.3922214,32.05737 C40.2036728,31.0773517 38.9733553,30.164738 37.7169323,29.3327828 L37.7169323,29.3327828 Z M47.3726309,20.1820326 L39.2560412,20.1820326 C38.1931721,17.7952261 36.9516666,15.4917288 35.5445772,13.3018348 L41.8774118,11.5315159 C41.96356,11.5072805 42.0485896,11.479637 42.1325003,11.4497214 L47.3726309,11.4497214 L47.3726309,20.1820326 Z" id="Shape" fill="#000000" fill-rule="nonzero"></path>
                            </g>
                        </g>
                    </g>
                </g>
            </g>
        </g>
    </g>
</svg>