<?xml version="1.0" encoding="UTF-8"?>
<svg width="55px" height="46px" viewBox="0 0 55 46" version="1.1" xmlns="http://www.w3.org/2000/svg" xmlns:xlink="http://www.w3.org/1999/xlink">
    <title>bat-icon / bat-icon-04</title>
    <defs>
        <filter id="filter-1">
            <feColorMatrix in="SourceGraphic" type="matrix" values="0 0 0 0 1.000000 0 0 0 0 0.803922 0 0 0 0 0.231373 0 0 0 1.000000 0"></feColorMatrix>
        </filter>
        <filter id="filter-2">
            <feColorMatrix in="SourceGraphic" type="matrix" values="0 0 0 0 0.525490 0 0 0 0 0.525490 0 0 0 0 0.525490 0 0 0 1.000000 0"></feColorMatrix>
        </filter>
    </defs>
    <g id="site" stroke="none" stroke-width="1" fill="none" fill-rule="evenodd">
        <g id="03-account-&gt;-game-&gt;-info" transform="translate(-46.000000, -1495.000000)">
            <g id="Group-5" transform="translate(17.000000, 1398.000000)">
                <g id="Group" transform="translate(0.000000, 56.000000)">
                    <g id="icon_info_01" transform="translate(24.000000, 32.000000)" filter="url(#filter-1)">
                        <g id="1_step" filter="url(#filter-2)">
                            <g transform="translate(5.600000, 9.599735)">
                                <polygon id="Path" fill="#FFFFFF" fill-rule="nonzero" points="51.1562879 12.8002653 51.2 14.1668245 1.64371207 16.0002653 1.6 14.6337062"></polygon>
                                <polygon id="Path" fill="#FFFFFF" fill-rule="nonzero" points="4.37575382 1.60026535 8.8 14.7897584 7.62424618 15.2002653 3.2 2.01077229"></polygon>
                                <path d="M49.8356312,0.000265349259 C50.2308,-0.0108994994 50.5400389,0.331919896 50.4808148,0.715788424 L50.4000582,1.27425175 L50.3805954,1.41540176 C50.3049557,1.96839763 50.2292841,2.57183031 50.1586675,3.20522689 C50.0425974,4.24631989 49.9519703,5.26319863 49.8965617,6.21569472 L49.8739182,6.64689161 L49.8569334,7.06336515 L49.8455339,7.4643609 C49.8426568,7.5953627 49.8406984,7.72365912 49.8396465,7.84912444 L49.839198,8.21690131 L49.844115,8.56693708 L49.8543244,8.89847731 L49.8697528,9.21076757 C49.8727551,9.26116986 49.8759717,9.31073864 49.8794013,9.35945819 L49.9025209,9.64145889 C49.9196207,9.82249783 49.9400778,9.98944605 49.9637945,10.1412976 L50.001802,10.3576268 C50.0759196,10.7330113 50.1743184,10.9904239 50.2949668,11.1089445 L50.5759851,11.3803474 L50.8782714,11.6804361 L51.2009925,12.0081462 L51.5433153,12.3624133 L52.0917302,12.9412799 L52.4143355,13.2871329 C52.9183819,13.8302355 53.4396278,14.4039078 53.958312,14.9836456 L54.4,15.2002653 L53.6,16.0002653 L54.235555,17.1964212 L53.3914229,16.237237 C52.8797654,15.6610776 52.3607809,15.0849789 51.8546079,14.5338189 L51.3173413,13.9531638 L50.9762878,13.589649 L50.623425,13.2185262 L50.2892533,12.8726649 L49.9745087,12.5530154 L49.6799271,12.2605277 L49.4062445,11.996152 C48.7493708,11.3510599 48.5244718,9.86067485 48.5716401,7.59591938 L48.584654,7.13266436 C48.5874118,7.05374137 48.59046,6.97396322 48.5937928,6.89333255 L48.6171563,6.39933912 C48.6216035,6.31530883 48.6263234,6.23043125 48.63131,6.14470903 C48.6880879,5.16867532 48.7805779,4.13089334 48.8988814,3.06976805 L48.9425374,2.68717655 L49.0325579,1.94792761 C49.0477809,1.8279235 49.0630865,1.7096289 49.0784341,1.59320505 L49.1218577,1.2659136 L4.52559911,2.5572245 L4.40058956,2.79849652 L4.23864012,3.12300323 L4.03634202,3.54340608 L3.88955086,3.85695654 L3.6511483,4.37851993 L3.39049416,4.96314635 L3.00757831,5.84381429 L2.80066436,6.32868848 C2.47245846,7.10225467 2.28356661,8.03719288 2.22131543,9.09848369 C2.14354985,10.424272 2.2645243,11.857705 2.51453489,13.2719359 C2.5560993,13.5070527 2.59941842,13.7307041 2.64339955,13.9410408 L2.73192076,14.3434131 L2.81729494,14.693386 C2.82116827,14.7081174 2.82463875,14.7210632 2.82768285,14.7321842 C2.87731625,14.9135086 2.8406498,15.1056131 2.73096128,15.2560195 L2.67951988,15.3177735 L1.26707447,16.8071049 L1.26731471,42.4002653 L0,42.4002653 L0,16.5625385 C0,16.4314072 0.0421546666,16.3043333 0.119391775,16.1989692 L0.169887355,16.1384971 L1.51845139,14.7153424 L1.49612061,14.6192395 C1.43321649,14.3474259 1.37043048,14.0493009 1.31038104,13.7290739 L1.26589799,13.4848253 C1.00061844,11.9842227 0.872015314,10.4603971 0.956098121,9.02690925 C1.02597682,7.83558052 1.24195521,6.76657489 1.6308354,5.85000221 L2.04046534,4.89586822 L2.32103756,4.25733192 L2.49565838,3.86732633 L2.81570627,3.17053112 L3.03075052,2.71862355 L3.27337588,2.22962243 L3.4127993,1.96234998 L3.52157716,1.76534475 L3.57799622,1.66988544 L3.62218374,1.60091625 C3.72180902,1.45415863 3.87937139,1.35682299 4.05465339,1.33080191 L4.13074187,1.32408004 L49.8356312,0.000265349259 Z" id="Path" fill="#FFFFFF" fill-rule="nonzero"></path>
                                <path d="M18.0904321,9.96539355 L18.6071976,8.95323648 C18.7122313,8.75080507 18.8046609,8.55062289 18.8844864,8.35268995 L18.8844864,8.35268995 L18.8970905,8.35268995 L19.1743793,8.95323648 L19.6911448,9.96539355 L20.9200384,9.96539355 L19.5461984,7.56995515 L20.9263405,5.14077817 L19.6722388,5.14077817 L19.1743793,6.1326921 C19.0693456,6.33962199 18.976916,6.54655188 18.8970905,6.75348177 L18.8970905,6.75348177 L18.8844864,6.75348177 L18.6071976,6.1326921 L18.1156402,5.14077817 L16.8615385,5.14077817 L18.2353785,7.56995515 L16.8678405,9.96539355 L18.0904321,9.96539355 Z M22.2434624,9.96539355 L22.7602279,8.95323648 C22.8652615,8.75080507 22.9576911,8.55062289 23.0375167,8.35268995 L23.0375167,8.35268995 L23.0501207,8.35268995 L23.3274096,8.95323648 L23.8441751,9.96539355 L25.0730687,9.96539355 L23.6992287,7.56995515 L25.0793707,5.14077817 L23.825269,5.14077817 L23.3274096,6.1326921 C23.2223759,6.33962199 23.1299463,6.54655188 23.0501207,6.75348177 L23.0501207,6.75348177 L23.0375167,6.75348177 L22.7602279,6.1326921 L22.2686704,5.14077817 L21.0145687,5.14077817 L22.3884088,7.56995515 L21.0208707,9.96539355 L22.2434624,9.96539355 Z M26.3964926,9.96539355 L26.9132582,8.95323648 C27.0182918,8.75080507 27.1107214,8.55062289 27.190547,8.35268995 L27.190547,8.35268995 L27.203151,8.35268995 L27.4804398,8.95323648 L27.9972054,9.96539355 L29.226099,9.96539355 L27.8522589,7.56995515 L29.232401,5.14077817 L27.9782993,5.14077817 L27.4804398,6.1326921 C27.3754062,6.33962199 27.2829766,6.54655188 27.203151,6.75348177 L27.203151,6.75348177 L27.190547,6.75348177 L26.9132582,6.1326921 L26.4217007,5.14077817 L25.167599,5.14077817 L26.5414391,7.56995515 L25.173901,9.96539355 L26.3964926,9.96539355 Z M30.5495229,9.96539355 L31.0662884,8.95323648 C31.1713221,8.75080507 31.2637517,8.55062289 31.3435772,8.35268995 L31.3435772,8.35268995 L31.3561813,8.35268995 L31.6334701,8.95323648 L32.1502356,9.96539355 L33.3791293,9.96539355 L32.0052892,7.56995515 L33.3854313,5.14077817 L32.1313296,5.14077817 L31.6334701,6.1326921 C31.5284365,6.33962199 31.4360068,6.54655188 31.3561813,6.75348177 L31.3561813,6.75348177 L31.3435772,6.75348177 L31.0662884,6.1326921 L30.574731,5.14077817 L29.3206293,5.14077817 L30.6944693,7.56995515 L29.3269313,9.96539355 L30.5495229,9.96539355 Z M34.7025532,9.96539355 L35.2193187,8.95323648 C35.3243523,8.75080507 35.4167819,8.55062289 35.4966075,8.35268995 L35.4966075,8.35268995 L35.5092115,8.35268995 L35.7865004,8.95323648 L36.3032659,9.96539355 L37.5321595,9.96539355 L36.1583195,7.56995515 L37.5384615,5.14077817 L36.2843598,5.14077817 L35.7865004,6.1326921 C35.6814667,6.33962199 35.5890371,6.54655188 35.5092115,6.75348177 L35.5092115,6.75348177 L35.4966075,6.75348177 L35.2193187,6.1326921 L34.7277612,5.14077817 L33.4736595,5.14077817 L34.8474996,7.56995515 L33.4799616,9.96539355 L34.7025532,9.96539355 Z" id="XXXXX" fill="#FFFFFF" fill-rule="nonzero" transform="translate(27.200000, 7.553086) rotate(-1.000000) translate(-27.200000, -7.553086) "></path>
                                <path d="M50.4,0.000265349259 L50.4,0.000265349259 L50.4,0.000265349259 L54.4,6.42670698 L54.4,44.0002653 L53.2167409,44.0002653 L53.2164126,6.85888849 L50.179872,1.7717325 C49.8389078,1.20051073 49.9296008,0.470664597 50.4,0.000265349259 Z" id="Path" fill="#FFFFFF" fill-rule="nonzero"></path>
                                <path d="M52.7695395,14.4002653 L52.8,15.6647458 L52.5438879,15.6762415 C52.3330818,15.6880298 52.0974823,15.7057317 51.8434839,15.7305102 C51.1194589,15.8011415 50.3963088,15.9138376 49.7268838,16.0766894 C48.4975209,16.3757578 47.6093474,16.8099939 47.2177637,17.3443201 C47.1192142,17.4760303 47.0367721,17.6386554 46.9673938,17.848621 L46.9230437,17.9957917 C46.9159634,18.0215492 46.9090361,18.0479361 46.9022575,18.0749751 L46.8633378,18.2452139 C46.8509373,18.3046885 46.8390984,18.3669515 46.8277878,18.4321832 L46.7954073,18.6369647 L46.7659959,18.8606397 L46.7393531,19.10429 L46.7041417,19.5095846 L46.6740326,19.9659068 L46.640655,20.6600215 L46.6135426,21.4599933 L46.5646935,23.2566014 L46.5438543,23.788413 L46.5286352,24.1031139 C46.3883984,26.8368293 46.0036661,28.7171381 45.1049446,30.1170462 C44.3651084,31.2584978 43.4961257,31.7919142 41.8677351,32.0610054 L41.5631557,32.1070949 C41.510951,32.1143166 41.4580138,32.1213146 41.4043268,32.1280987 L41.0730645,32.1663109 C41.0163074,32.1722771 40.9587653,32.1780483 40.9004207,32.1836343 L40.5405815,32.2150022 L40.1606388,32.2423812 L39.7597507,32.2662302 L39.3370754,32.2870084 L37.8117889,32.3456581 L35.1191291,32.4153721 L29.7280038,32.5293052 L16.2390798,32.7685542 L13.5270846,32.8002653 L13.4496229,32.8002653 C10.3371368,32.8002653 8.31450213,31.8967802 7.48166983,29.1984272 C7.19640733,28.2741848 6.93396031,27.1505503 6.68594069,25.8442709 L6.62534623,25.5200813 L6.50732005,24.8586 L6.39214351,24.1736249 C6.37309373,24.0571029 6.35409431,23.9393008 6.33511107,23.820068 L6.22113233,23.0862973 L5.84038173,20.488231 C5.69525632,19.2637053 4.31360376,17.7112534 3.18503208,17.5284264 C2.67534763,17.4458583 2.18627242,17.3878617 1.72954208,17.3503831 L1.34517415,17.3231017 L1.05500885,17.3085124 L0.848915617,17.3027773 L0.8,17.3024399 L0.8,16.0375834 L1.00379251,16.0415244 L1.25640379,16.0516634 L1.54122175,16.0681799 C2.11030061,16.1059627 2.73050452,16.1738493 3.38240202,16.2794557 C5.03745783,16.5475724 6.78365261,18.4708131 7.05943729,20.1848348 L7.39912543,22.5161007 L7.51193648,23.2593253 L7.6241791,23.9643042 L7.73744276,24.6380564 L7.85331699,25.2876008 L7.91272979,25.6054885 C8.15260964,26.8688971 8.40494608,27.9492444 8.67405577,28.8211521 C9.28752441,30.8087731 10.7488889,31.5023459 13.2637273,31.5342464 L13.9174569,31.5329091 L16.752335,31.495931 L26.0845515,31.334517 L36.5434126,31.1159105 L37.7609361,31.081833 L39.2750854,31.0236825 L39.8721786,30.9929685 L40.4161245,30.9556812 L40.7508682,30.926505 C40.8048679,30.9213267 40.857986,30.915985 40.9102428,30.9104716 L41.2136123,30.8752645 C41.4091872,30.8503307 41.5916377,30.8223833 41.7622754,30.7908896 L42.0095361,30.7409225 C43.0440283,30.512295 43.6071315,30.1225715 44.0590137,29.4253943 C44.7499645,28.349115 45.0996842,26.8042539 45.2498813,24.5663501 L45.2863207,23.9331739 L45.3187476,23.1352489 L45.3838063,20.8118096 L45.4061761,20.2522682 L45.4326118,19.7450468 L45.4529655,19.4340775 L45.4882977,19.0055587 L45.5154659,18.7435174 L45.5458548,18.4990646 C45.5512036,18.4597252 45.5566985,18.4210715 45.5623452,18.3830799 L45.598095,18.1628856 L45.637772,17.9574474 C45.6864629,17.7259367 45.7437492,17.5222401 45.8116513,17.3382615 L45.8724999,17.1852057 L45.9388308,17.0406747 C45.9964694,16.9234696 46.0601131,16.8139645 46.1304983,16.7092088 L46.2182434,16.585593 C46.8259006,15.7563464 47.9445619,15.2094227 49.4350322,14.8468344 C50.1672748,14.6687009 50.4222383,13.6761388 51.2,13.6002653 L52.1159893,14.4372249 C52.1787271,14.4324033 52.240077,14.4280128 52.2999434,14.4240335 L52.6813042,14.4032343 L52.7695395,14.4002653 Z" id="Path" fill="#FFFFFF" fill-rule="nonzero"></path>
                                <polygon id="Path" fill="#FFFFFF" fill-rule="nonzero" points="51.2 13.6002653 51.2 44.0002653 49.6 44.0002653 49.6 13.6002653"></polygon>
                                <path d="M1.54959021,42.4002653 L1.6,42.7206912 L1.09281693,42.8730106 C1.01342497,42.8975781 0.936602268,42.9217194 0.862348836,42.9454095 L0.150461967,43.1863376 L0.0660940886,43.218024 L0,42.9029326 L0.389308708,42.7640204 L0.807163236,42.626447 L1.28669522,42.4781021 L1.54959021,42.4002653 Z" id="Path" fill="#FFFFFF" fill-rule="nonzero"></path>
                                <path d="M4.03454346,41.7287066 C4.82167469,41.556536 5.62888096,41.3941407 6.4586601,41.2432344 L6.42979254,41.0194356 C5.59806651,41.170696 4.78897314,41.333471 4,41.5060444 L4.03454346,41.7287066 Z M8.89520898,40.845428 C9.70637378,40.7281978 10.5214694,40.6257209 11.339466,40.539299 L11.322567,40.3137814 C10.5024843,40.4004237 9.68534475,40.5031575 8.87217136,40.620678 L8.89520898,40.845428 Z M13.7922298,40.3303269 C14.6154217,40.277417 15.4344632,40.2425287 16.2483235,40.2266433 L16.2451895,40.0002653 C15.4288977,40.0161982 14.6074676,40.0511882 13.7819236,40.1042493 L13.7922298,40.3303269 Z M18.7083498,40.2381473 C19.5367385,40.2627535 20.3550897,40.3087392 21.1624357,40.3769507 L21.1759689,40.1511132 C20.365657,40.0826511 19.5443863,40.0365013 18.7131183,40.0118096 L18.7083498,40.2381473 Z M23.6072958,40.6574906 L23.8463123,40.6932584 C24.5771796,40.808661 25.3059804,40.9357798 26.0403359,41.0752162 L26.0704442,40.851648 C25.3344622,40.7119028 24.6040055,40.5844952 23.8710567,40.4687648 L23.6306272,40.4327834 L23.6072958,40.6574906 Z M28.4626247,41.5738395 L29.2382798,41.7483191 C29.3691703,41.7782939 29.5010626,41.8087569 29.6342483,41.8397694 L30.4512165,42.032927 C30.5907424,42.066382 30.732145,42.1005089 30.875716,42.1353689 L30.9139162,41.9135504 L30.0751112,41.7124426 L29.2743026,41.5259876 L28.4974759,41.351245 L28.4626247,41.5738395 Z M33.2848163,42.7336815 L35.263151,43.2265121 L35.6944424,43.3312778 L35.7324399,43.1094103 L33.3242844,42.5121763 L33.2848163,42.7336815 Z M38.116058,43.8832755 C38.9678744,44.0629674 39.7697873,44.2137981 40.5515421,44.3393864 L40.5771068,44.1150221 C39.7980894,43.9898734 38.9987492,43.8395267 38.149411,43.6603576 L38.116058,43.8832755 Z M43.008745,44.6559135 C43.8332476,44.7342935 44.6511647,44.7827026 45.4727614,44.8002653 L45.4761935,44.5738935 C44.6585861,44.5564161 43.844596,44.5082393 43.0239619,44.4302271 L43.008745,44.6559135 Z M47.9400708,44.7600295 C48.7473606,44.7166318 49.5656889,44.643302 50.4,44.5387322 L50.3799842,44.3135745 C49.5494535,44.4176705 48.7349242,44.4906599 47.9314471,44.5338526 L47.9400708,44.7600295 Z" id="Path" fill="#FFFFFF" fill-rule="nonzero"></path>
                                <path d="M54.3335657,44.0002653 L54.4,44.3153567 L54.1862948,44.3936553 L53.9730005,44.4619835 L53.7456304,44.5245625 C53.7057576,44.5347477 53.6646947,44.5448693 53.6221399,44.5550151 L53.3464937,44.6168846 L52.8341991,44.7200143 L52.8,44.3956078 L53.3046851,44.29405 L53.5754936,44.2333501 L53.8103632,44.1734568 L54.0235052,44.1102577 C54.0580077,44.0992206 54.0921971,44.0878745 54.1263693,44.0761335 L54.3335657,44.0002653 Z" id="Path" fill="#FFFFFF" fill-rule="nonzero"></path>
                            </g>
                        </g>
                    </g>
                </g>
            </g>
        </g>
    </g>
</svg>