<?xml version="1.0" encoding="UTF-8"?>
<svg width="45px" height="52px" viewBox="0 0 45 52" version="1.1" xmlns="http://www.w3.org/2000/svg" xmlns:xlink="http://www.w3.org/1999/xlink">
    <title>bat-icon / bat-icon-04</title>
    <defs>
        <filter id="filter-1">
            <feColorMatrix in="SourceGraphic" type="matrix" values="0 0 0 0 1.000000 0 0 0 0 0.803922 0 0 0 0 0.231373 0 0 0 1.000000 0"></feColorMatrix>
        </filter>
        <filter id="filter-2">
            <feColorMatrix in="SourceGraphic" type="matrix" values="0 0 0 0 0.525490 0 0 0 0 0.525490 0 0 0 0 0.525490 0 0 0 1.000000 0"></feColorMatrix>
        </filter>
    </defs>
    <g id="site" stroke="none" stroke-width="1" fill="none" fill-rule="evenodd">
        <g id="03-account-&gt;-game-&gt;-info" transform="translate(-58.000000, -1580.000000)">
            <g id="Group-5" transform="translate(17.000000, 1398.000000)">
                <g id="Group" transform="translate(0.000000, 56.000000)">
                    <g id="icon_info_01" transform="translate(24.000000, 120.000000)" filter="url(#filter-1)">
                        <g id="3_step" filter="url(#filter-2)">
                            <g transform="translate(39.200000, 32.400000) scale(-1, 1) translate(-39.200000, -32.400000) translate(17.681159, 6.800000)">
                                <path d="M13.3565217,30.2009217 L13.3565217,45.8912442 C13.3565217,48.840553 15.7598545,51.2 18.7640204,51.2 L37.6301825,51.2 C40.6343484,51.2 43.0376812,48.840553 43.0376812,45.8912442 L43.0376812,5.30875576 C43.0376812,2.359447 40.6343484,0 37.6301825,0 L18.7640204,0 C15.7598545,0 13.3565217,2.359447 13.3565217,5.30875576 L13.3565217,12.5050691 C13.8371883,12.5050691 14.3178548,12.5050691 14.7985214,12.5050691 L14.7985214,8.31705069 L16.420771,8.31705069 C16.8413542,8.31705069 17.1417708,8.02211982 17.1417708,7.60921659 C17.1417708,7.19631336 16.8413542,6.90138249 16.420771,6.90138249 L14.7985214,6.90138249 L14.7985214,5.30875576 C14.7985214,3.12626728 16.6010209,1.35668203 18.8241037,1.35668203 L37.6301825,1.35668203 C39.8532653,1.35668203 41.6557648,3.12626728 41.6557648,5.30875576 L41.6557648,6.90138249 L22.4291029,6.90138249 C22.0085196,6.90138249 21.708103,7.19631336 21.708103,7.60921659 C21.708103,8.02211982 22.0085196,8.31705069 22.4291029,8.31705069 L41.6557648,8.31705069 L41.6557648,41.4672811 L14.7384381,41.4672811 L14.7384381,30.2599078 C14.3779382,30.2599078 14.0775216,30.2009217 13.7170217,30.2009217 C13.596855,30.2009217 13.4766884,30.2009217 13.3565217,30.2009217 Z M14.7384381,42.8829493 L41.6557648,42.8829493 L41.6557648,45.8912442 C41.6557648,48.0737327 39.8532653,49.843318 37.6301825,49.843318 L18.7640204,49.843318 C16.5409376,49.843318 14.7384381,48.0737327 14.7384381,45.8912442 L14.7384381,42.8829493 Z" id="Shape" fill="#FFFFFF" fill-rule="nonzero"></path>
                                <path d="M20.7768116,7.42028986 C20.7768116,6.98743961 20.5348456,6.67826087 20.1960933,6.67826087 L19.131443,6.67826087 C18.7926906,6.67826087 18.5507246,6.98743961 18.5507246,7.42028986 C18.5507246,7.8531401 18.7926906,8.16231884 19.131443,8.16231884 L20.1960933,8.16231884 C20.5348456,8.10048309 20.7768116,7.79130435 20.7768116,7.42028986 Z" id="Path" fill="#FFFFFF" fill-rule="nonzero"></path>
                                <path d="M31.1652174,46.3768116 C31.1652174,44.919901 30.0250265,43.7797101 28.5681159,43.7797101 C27.1112054,43.7797101 25.9710145,44.919901 25.9710145,46.3768116 C25.9710145,47.8337222 27.1112054,48.973913 28.5681159,48.973913 C30.0250265,48.973913 31.1652174,47.7703782 31.1652174,46.3768116 Z M29.7083068,46.3768116 C29.7083068,47.010251 29.2015553,47.5170025 28.5681159,47.5170025 C27.9346766,47.5170025 27.4279251,47.010251 27.4279251,46.3768116 C27.4279251,45.7433722 27.9346766,45.2366207 28.5681159,45.2366207 C29.2015553,45.2366207 29.7083068,45.7433722 29.7083068,46.3768116 Z" id="Shape" fill="#FFFFFF" fill-rule="nonzero"></path>
                                <path d="M30.9569875,27.4292628 L16.4237453,27.4292628 L15.8329631,28.9391304 L13.4698342,27.4292628 L1.00432975,27.4292628 C0.413547543,27.4292628 0,26.9646881 0,26.4420416 L0,16.5698299 C0,15.9891115 0.472625763,15.5826087 1.00432975,15.5826087 L30.8979092,15.5826087 C31.4886915,15.5826087 31.902239,16.0471834 31.902239,16.5698299 L31.902239,26.3839698 C31.9613172,26.9646881 31.4886915,27.4292628 30.9569875,27.4292628 Z" id="Path" stroke="#FFFFFF" stroke-width="1.8"></path>
                                <path d="M5.28048534,23.7449275 L5.94083361,22.6552346 C6.07505074,22.437296 6.19316182,22.221779 6.29516684,22.0086835 L6.29516684,22.0086835 L6.31127289,22.0086835 L6.66560611,22.6552346 L7.32595439,23.7449275 L8.8962948,23.7449275 L7.14073475,21.1659876 L8.90434783,18.5507246 L7.3017953,18.5507246 L6.66560611,19.6186237 C6.53138898,19.8414054 6.41327791,20.064187 6.31127289,20.2869687 L6.31127289,20.2869687 L6.29516684,20.2869687 L5.94083361,19.6186237 L5.31269745,18.5507246 L3.71014493,18.5507246 L5.46570498,21.1659876 L3.71819796,23.7449275 L5.28048534,23.7449275 Z M10.4746882,23.7449275 L11.1350365,22.6552346 C11.2692536,22.437296 11.3873647,22.221779 11.4893697,22.0086835 L11.4893697,22.0086835 L11.5054758,22.0086835 L11.859809,22.6552346 L12.5201573,23.7449275 L14.0904977,23.7449275 L12.3349376,21.1659876 L14.0985507,18.5507246 L12.4959982,18.5507246 L11.859809,19.6186237 C11.7255919,19.8414054 11.6074808,20.064187 11.5054758,20.2869687 L11.5054758,20.2869687 L11.4893697,20.2869687 L11.1350365,19.6186237 L10.5069003,18.5507246 L8.90434783,18.5507246 L10.6599079,21.1659876 L8.91240085,23.7449275 L10.4746882,23.7449275 Z M14.9268622,23.7449275 L15.5872104,22.6552346 C15.7214276,22.437296 15.8395386,22.221779 15.9415436,22.0086835 L15.9415436,22.0086835 L15.9576497,22.0086835 L16.3119829,22.6552346 L16.9723312,23.7449275 L18.5426716,23.7449275 L16.7871116,21.1659876 L18.5507246,18.5507246 L16.9481721,18.5507246 L16.3119829,19.6186237 C16.1777658,19.8414054 16.0596547,20.064187 15.9576497,20.2869687 L15.9576497,20.2869687 L15.9415436,20.2869687 L15.5872104,19.6186237 L14.9590743,18.5507246 L13.3565217,18.5507246 L15.1120818,21.1659876 L13.3645748,23.7449275 L14.9268622,23.7449275 Z M20.121065,23.7449275 L20.7814133,22.6552346 C20.9156305,22.437296 21.0337415,22.221779 21.1357465,22.0086835 L21.1357465,22.0086835 L21.1518526,22.0086835 L21.5061858,22.6552346 L22.1665341,23.7449275 L23.7368745,23.7449275 L21.9813145,21.1659876 L23.7449275,18.5507246 L22.142375,18.5507246 L21.5061858,19.6186237 C21.3719687,19.8414054 21.2538576,20.064187 21.1518526,20.2869687 L21.1518526,20.2869687 L21.1357465,20.2869687 L20.7814133,19.6186237 L20.1532772,18.5507246 L18.5507246,18.5507246 L20.3062847,21.1659876 L18.5587777,23.7449275 L20.121065,23.7449275 Z M25.3152679,23.7449275 L25.9756162,22.6552346 C26.1098334,22.437296 26.2279444,22.221779 26.3299494,22.0086835 L26.3299494,22.0086835 L26.3460555,22.0086835 L26.7003887,22.6552346 L27.360737,23.7449275 L28.9310774,23.7449275 L27.1755174,21.1659876 L28.9391304,18.5507246 L27.3365779,18.5507246 L26.7003887,19.6186237 C26.5661716,19.8414054 26.4480605,20.064187 26.3460555,20.2869687 L26.3460555,20.2869687 L26.3299494,20.2869687 L25.9756162,19.6186237 L25.3474801,18.5507246 L23.7449275,18.5507246 L25.5004876,21.1659876 L23.7529806,23.7449275 L25.3152679,23.7449275 Z" id="XXXXX" fill="#FFFFFF" fill-rule="nonzero"></path>
                            </g>
                        </g>
                    </g>
                </g>
            </g>
        </g>
    </g>
</svg>