<?xml version="1.0" encoding="UTF-8"?>
<svg width="41px" height="52px" viewBox="0 0 41 52" version="1.1" xmlns="http://www.w3.org/2000/svg" xmlns:xlink="http://www.w3.org/1999/xlink">
    <title>bat-icon / bat-icon-04</title>
    <defs>
        <filter id="filter-1">
            <feColorMatrix in="SourceGraphic" type="matrix" values="0 0 0 0 1.000000 0 0 0 0 0.803922 0 0 0 0 0.231373 0 0 0 1.000000 0"></feColorMatrix>
        </filter>
        <filter id="filter-2">
            <feColorMatrix in="SourceGraphic" type="matrix" values="0 0 0 0 0.525490 0 0 0 0 0.525490 0 0 0 0 0.525490 0 0 0 1.000000 0"></feColorMatrix>
        </filter>
    </defs>
    <g id="site" stroke="none" stroke-width="1" fill="none" fill-rule="evenodd">
        <g id="03-account-&gt;-mgm" transform="translate(-44.000000, -1304.000000)">
            <g id="Group-5" transform="translate(14.000000, 1210.000000)">
                <g id="Group" transform="translate(0.000000, 56.000000)">
                    <g id="icon_info_01" transform="translate(24.000000, 32.000000)" filter="url(#filter-1)">
                        <g id="3_step" filter="url(#filter-2)">
                            <g transform="translate(6.344264, 6.800000)">
                                <path d="M10.2934168,30.2009217 L10.2934168,45.8912442 C10.2934168,48.840553 12.6967496,51.2 15.7009155,51.2 L34.5670776,51.2 C37.5712435,51.2 39.9745763,48.840553 39.9745763,45.8912442 L39.9745763,5.30875576 C39.9745763,2.359447 37.5712435,0 34.5670776,0 L15.7009155,0 C12.6967496,0 10.2934168,2.359447 10.2934168,5.30875576 L10.2934168,12.5050691 C10.7740834,12.5050691 11.2547499,12.5050691 11.7354165,12.5050691 L11.7354165,8.31705069 L13.3576661,8.31705069 C13.7782493,8.31705069 14.0786659,8.02211982 14.0786659,7.60921659 C14.0786659,7.19631336 13.7782493,6.90138249 13.3576661,6.90138249 L11.7354165,6.90138249 L11.7354165,5.30875576 C11.7354165,3.12626728 13.537916,1.35668203 15.7609988,1.35668203 L34.5670776,1.35668203 C36.7901604,1.35668203 38.5926599,3.12626728 38.5926599,5.30875576 L38.5926599,6.90138249 L19.365998,6.90138249 C18.9454147,6.90138249 18.6449981,7.19631336 18.6449981,7.60921659 C18.6449981,8.02211982 18.9454147,8.31705069 19.365998,8.31705069 L38.5926599,8.31705069 L38.5926599,41.4672811 L11.6753332,41.4672811 L11.6753332,30.2599078 C11.3148333,30.2599078 11.0144167,30.2009217 10.6539167,30.2009217 C10.5337501,30.2009217 10.4135835,30.2009217 10.2934168,30.2009217 Z M11.6753332,42.8829493 L38.5926599,42.8829493 L38.5926599,45.8912442 C38.5926599,48.0737327 36.7901604,49.843318 34.5670776,49.843318 L15.7009155,49.843318 C13.4778327,49.843318 11.6753332,48.0737327 11.6753332,45.8912442 L11.6753332,42.8829493 Z" id="Shape" fill="#FFFFFF" fill-rule="nonzero"></path>
                                <path d="M17.757096,34.040006 C18.9735173,34.0428212 19.976541,33.0452087 19.980251,31.8289262 C19.9838948,30.6219862 18.9872535,29.6038387 17.7982585,29.599988 C16.5675923,29.5960225 15.545236,30.58161 15.5402207,31.77671 C15.535061,33.0329987 16.5186135,34.0371325 17.757096,34.040006 L17.757096,34.040006 Z M7.40024117,27.3968812 C7.40074978,25.7677712 6.07989603,24.4212025 4.48001603,24.419999 C2.81839228,24.418705 1.48246103,25.729615 1.48023824,27.363535 C1.47802103,29.00985 2.80220478,30.33889 4.44588353,30.3400006 C6.05880603,30.3410637 7.39973228,29.0052712 7.40024117,27.3968812 L7.40024117,27.3968812 Z M18.4985298,20.7200009 C20.5114685,20.7214337 22.1981135,19.05981 22.2002432,17.0733262 C22.2024148,15.01349 20.562991,13.3225437 18.5612448,13.3199968 C16.4794398,13.3173637 14.802646,14.9576662 14.8002384,16.999095 C14.797836,19.0504675 16.4557598,20.7185662 18.4985298,20.7200009 L18.4985298,20.7200009 Z M18.916491,11.84 C19.4129848,11.9620075 19.9325573,12.0267112 20.4018098,12.2161975 C22.1391448,12.9178562 23.223476,14.2108675 23.5776123,16.0469 C23.9269385,17.8580962 23.401076,19.4387362 22.0969185,20.7441425 C20.3194848,22.5232412 17.3537035,22.6898337 15.374666,21.1355562 C15.3323935,21.1023487 15.2844785,21.0762175 15.242391,21.0427787 C14.9168835,20.7841025 14.9148485,20.7800325 14.5675573,20.9881112 C12.4228985,22.2733525 10.2793035,23.5604437 8.13543103,24.8470262 C8.12890978,24.8509112 8.12349853,24.8567387 8.10823603,24.8694575 C8.88505103,26.0714025 9.09040103,27.3604825 8.65976728,28.7666212 C10.4915448,29.442195 12.3278085,30.1193875 14.1654135,30.797135 C14.316651,30.4886937 14.4467985,30.1702625 14.6205135,29.8776387 C15.763351,27.9526212 18.4914535,27.5316075 20.165611,29.012995 C21.0831648,29.8249137 21.5069998,30.8464837 21.4582523,32.0641537 C21.3956298,33.629855 20.1153373,35.118365 18.5763223,35.427685 C18.4274435,35.4576087 18.2789348,35.4891975 18.130241,35.52 L17.390241,35.52 C17.0376773,35.4244937 16.6669835,35.3705662 16.3358798,35.2259425 C15.1607135,34.7126137 14.4162273,33.8266487 14.1484398,32.5605087 C14.1157873,32.405895 14.0432673,32.32542 13.883751,32.2673762 C11.9699723,31.5709437 10.0597085,30.8647062 8.15087853,30.1548612 C7.99348978,30.0963087 7.91689978,30.1327537 7.80895228,30.2583687 C6.11051353,32.2354637 3.20286853,32.319315 1.39879478,30.6075562 C0.670866028,29.9168587 0.212528528,29.0799187 0.0572672777,28.0943775 C-0.254873972,26.1126112 0.728447278,24.2270912 2.53215103,23.3780337 C4.01945853,22.677855 5.48216103,22.7941737 6.87599728,23.6778725 C6.96438103,23.7338812 7.03241478,23.7849875 7.15719728,23.7096462 C9.40564103,22.3518387 11.6587098,21.0016625 13.9106685,19.6496825 C13.936846,19.6339575 13.9614973,19.61555 13.955531,19.6195737 C13.7840823,19.1226637 13.5720723,18.6464737 13.455661,18.147945 C12.7897998,15.2958462 14.686836,12.4400937 17.5653435,11.930835 C17.7381798,11.9002637 17.9111085,11.8702475 18.083991,11.84 L18.916491,11.84 Z" id="Fill-1" fill="#000000"></path>
                                <path d="M17.7137067,7.42028986 C17.7137067,6.98743961 17.4717407,6.67826087 17.1329884,6.67826087 L16.0683381,6.67826087 C15.7295857,6.67826087 15.4876197,6.98743961 15.4876197,7.42028986 C15.4876197,7.8531401 15.7295857,8.16231884 16.0683381,8.16231884 L17.1329884,8.16231884 C17.4717407,8.10048309 17.7137067,7.79130435 17.7137067,7.42028986 Z" id="Path" fill="#FFFFFF" fill-rule="nonzero"></path>
                                <path d="M28.1021125,46.3768116 C28.1021125,44.919901 26.9619216,43.7797101 25.505011,43.7797101 C24.0481005,43.7797101 22.9079096,44.919901 22.9079096,46.3768116 C22.9079096,47.8337222 24.0481005,48.973913 25.505011,48.973913 C26.9619216,48.973913 28.1021125,47.7703782 28.1021125,46.3768116 Z M26.6452019,46.3768116 C26.6452019,47.010251 26.1384504,47.5170025 25.505011,47.5170025 C24.8715717,47.5170025 24.3648202,47.010251 24.3648202,46.3768116 C24.3648202,45.7433722 24.8715717,45.2366207 25.505011,45.2366207 C26.1384504,45.2366207 26.6452019,45.7433722 26.6452019,46.3768116 Z" id="Shape" fill="#FFFFFF" fill-rule="nonzero"></path>
                            </g>
                        </g>
                    </g>
                </g>
            </g>
        </g>
    </g>
</svg>