<?xml version="1.0" encoding="UTF-8"?>
<svg width="45px" height="52px" viewBox="0 0 45 52" version="1.1" xmlns="http://www.w3.org/2000/svg" xmlns:xlink="http://www.w3.org/1999/xlink">
    <title>bat-icon / bat-icon-04</title>
    <defs>
        <filter id="filter-1">
            <feColorMatrix in="SourceGraphic" type="matrix" values="0 0 0 0 1.000000 0 0 0 0 0.803922 0 0 0 0 0.231373 0 0 0 1.000000 0"></feColorMatrix>
        </filter>
        <filter id="filter-2">
            <feColorMatrix in="SourceGraphic" type="matrix" values="0 0 0 0 0.525490 0 0 0 0 0.525490 0 0 0 0 0.525490 0 0 0 1.000000 0"></feColorMatrix>
        </filter>
    </defs>
    <g id="site" stroke="none" stroke-width="1" fill="none" fill-rule="evenodd">
        <g id="03-account-&gt;-mgm" transform="translate(-40.000000, -1430.000000)">
            <g id="Group-5" transform="translate(14.000000, 1210.000000)">
                <g id="Group" transform="translate(0.000000, 56.000000)">
                    <g id="icon_info_01" transform="translate(24.000000, 158.000000)" filter="url(#filter-1)">
                        <g id="3_step" filter="url(#filter-2)">
                            <g transform="translate(3.281159, 6.800000)">
                                <path d="M13.3565217,30.2009217 L13.3565217,45.8912442 C13.3565217,48.840553 15.7598545,51.2 18.7640204,51.2 L37.6301825,51.2 C40.6343484,51.2 43.0376812,48.840553 43.0376812,45.8912442 L43.0376812,5.30875576 C43.0376812,2.359447 40.6343484,0 37.6301825,0 L18.7640204,0 C15.7598545,0 13.3565217,2.359447 13.3565217,5.30875576 L13.3565217,12.5050691 C13.8371883,12.5050691 14.3178548,12.5050691 14.7985214,12.5050691 L14.7985214,8.31705069 L16.420771,8.31705069 C16.8413542,8.31705069 17.1417708,8.02211982 17.1417708,7.60921659 C17.1417708,7.19631336 16.8413542,6.90138249 16.420771,6.90138249 L14.7985214,6.90138249 L14.7985214,5.30875576 C14.7985214,3.12626728 16.6010209,1.35668203 18.8241037,1.35668203 L37.6301825,1.35668203 C39.8532653,1.35668203 41.6557648,3.12626728 41.6557648,5.30875576 L41.6557648,6.90138249 L22.4291029,6.90138249 C22.0085196,6.90138249 21.708103,7.19631336 21.708103,7.60921659 C21.708103,8.02211982 22.0085196,8.31705069 22.4291029,8.31705069 L41.6557648,8.31705069 L41.6557648,41.4672811 L14.7384381,41.4672811 L14.7384381,30.2599078 C14.3779382,30.2599078 14.0775216,30.2009217 13.7170217,30.2009217 C13.596855,30.2009217 13.4766884,30.2009217 13.3565217,30.2009217 Z M14.7384381,42.8829493 L41.6557648,42.8829493 L41.6557648,45.8912442 C41.6557648,48.0737327 39.8532653,49.843318 37.6301825,49.843318 L18.7640204,49.843318 C16.5409376,49.843318 14.7384381,48.0737327 14.7384381,45.8912442 L14.7384381,42.8829493 Z" id="Shape" fill="#FFFFFF" fill-rule="nonzero"></path>
                                <path d="M20.7768116,7.42028986 C20.7768116,6.98743961 20.5348456,6.67826087 20.1960933,6.67826087 L19.131443,6.67826087 C18.7926906,6.67826087 18.5507246,6.98743961 18.5507246,7.42028986 C18.5507246,7.8531401 18.7926906,8.16231884 19.131443,8.16231884 L20.1960933,8.16231884 C20.5348456,8.10048309 20.7768116,7.79130435 20.7768116,7.42028986 Z" id="Path" fill="#FFFFFF" fill-rule="nonzero"></path>
                                <path d="M31.1652174,46.3768116 C31.1652174,44.919901 30.0250265,43.7797101 28.5681159,43.7797101 C27.1112054,43.7797101 25.9710145,44.919901 25.9710145,46.3768116 C25.9710145,47.8337222 27.1112054,48.973913 28.5681159,48.973913 C30.0250265,48.973913 31.1652174,47.7703782 31.1652174,46.3768116 Z M29.7083068,46.3768116 C29.7083068,47.010251 29.2015553,47.5170025 28.5681159,47.5170025 C27.9346766,47.5170025 27.4279251,47.010251 27.4279251,46.3768116 C27.4279251,45.7433722 27.9346766,45.2366207 28.5681159,45.2366207 C29.2015553,45.2366207 29.7083068,45.7433722 29.7083068,46.3768116 Z" id="Shape" fill="#FFFFFF" fill-rule="nonzero"></path>
                                <path d="M30.9569875,27.4292628 L16.4237453,27.4292628 L15.8329631,28.9391304 L13.4698342,27.4292628 L1.00432975,27.4292628 C0.413547543,27.4292628 0,26.9646881 0,26.4420416 L0,16.5698299 C0,15.9891115 0.472625763,15.5826087 1.00432975,15.5826087 L30.8979092,15.5826087 C31.4886915,15.5826087 31.902239,16.0471834 31.902239,16.5698299 L31.902239,26.3839698 C31.9613172,26.9646881 31.4886915,27.4292628 30.9569875,27.4292628 Z" id="Path" stroke="#FFFFFF" stroke-width="1.8"></path>
                                <path d="M5.75427347,23.6605832 C6.23146622,23.6605832 6.61803823,23.5129807 6.9139895,23.2177757 C7.20994077,22.9225706 7.3579164,22.5406784 7.3579164,22.072099 C7.3579164,21.6035196 7.20994077,21.2192844 6.9139895,20.9193936 C6.61803823,20.6195028 6.23146622,20.4695574 5.75427347,20.4695574 L5.75427347,20.4695574 L4.91459777,20.4695574 L4.91459777,19.6893726 L6.9105482,19.6893726 L6.9105482,18.6350689 L3.71014493,18.6350689 L3.71014493,23.6605832 L5.75427347,23.6605832 Z M5.52714808,22.6062795 L4.91459777,22.6062795 L4.91459777,21.5238611 L5.50650032,21.5238611 C5.70838955,21.5238611 5.86324778,21.5742334 5.97107498,21.6749779 C6.07890219,21.7757225 6.1328158,21.9080962 6.1328158,22.072099 C6.1328158,22.2361018 6.08004929,22.3661326 5.97451628,22.4621914 C5.86898327,22.5582501 5.71986053,22.6062795 5.52714808,22.6062795 L5.52714808,22.6062795 Z M10.3724898,23.7449275 C11.1112209,23.7449275 11.7249183,23.4930661 12.213582,22.9893432 C12.7022457,22.4856203 12.9465776,21.8612383 12.9465776,21.116197 C12.9465776,20.3898989 12.7022457,19.7807456 12.213582,19.2887372 C11.7249183,18.7967288 11.1112209,18.5507246 10.3724898,18.5507246 C9.63375873,18.5507246 9.02006133,18.7967288 8.53139761,19.2887372 C8.04273388,19.7807456 7.79840202,20.3898989 7.79840202,21.116197 C7.79840202,21.8612383 8.04273388,22.4856203 8.53139761,22.9893432 C9.02006133,23.4930661 9.63375873,23.7449275 10.3724898,23.7449275 Z M10.3724898,22.6203369 C10.0008301,22.6203369 9.68652524,22.4762487 9.4295753,22.1880724 C9.17262536,21.8998961 9.04415039,21.5426043 9.04415039,21.116197 C9.04415039,20.7085329 9.17262536,20.3664699 9.4295753,20.090008 C9.68652524,19.8135462 10.0008301,19.6753153 10.3724898,19.6753153 C10.7441495,19.6753153 11.0584544,19.8135462 11.3154043,20.090008 C11.5723543,20.3664699 11.7008292,20.7085329 11.7008292,21.116197 C11.7008292,21.5426043 11.5723543,21.8998961 11.3154043,22.1880724 C11.0584544,22.4762487 10.7441495,22.6203369 10.3724898,22.6203369 Z M14.9149977,23.6605832 L14.9149977,21.6925497 L16.7044705,21.6925497 L16.7044705,23.6605832 L17.9089233,23.6605832 L17.9089233,18.6350689 L16.7044705,18.6350689 L16.7044705,20.6452747 L14.9149977,20.6452747 L14.9149977,18.6350689 L13.7105448,18.6350689 L13.7105448,23.6605832 L14.9149977,23.6605832 Z M19.9186389,23.7449275 C20.1251166,23.7449275 20.3109464,23.7050983 20.4761285,23.6254398 C20.6413106,23.5457813 20.7824037,23.4333222 20.8994077,23.2880626 C21.0164117,23.142803 21.1104737,23.0034006 21.1815938,22.8698555 C21.2527139,22.7363103 21.3226868,22.5805077 21.3915127,22.4024475 L21.3915127,22.4024475 L22.8437387,18.6350689 L21.5773426,18.6350689 L20.9716749,20.4484713 C20.8936722,20.682761 20.8294347,20.9053362 20.7789624,21.116197 L20.7789624,21.116197 L20.7651972,21.116197 L20.4967763,20.4414426 L19.6777484,18.6350689 L18.3562915,18.6350689 L20.2558857,22.4375909 C20.1870599,22.6109653 20.0562907,22.6976525 19.8635782,22.6976525 C19.6983961,22.6976525 19.5171547,22.6133082 19.3198538,22.4446196 L19.3198538,22.4446196 L18.7967771,23.3653782 C19.1500833,23.6184111 19.5240372,23.7449275 19.9186389,23.7449275 Z M25.4728872,23.7449275 C26.2620906,23.7449275 26.922819,23.4637799 27.4550725,22.9014846 L27.4550725,22.9014846 L26.8356396,22.0018121 C26.4318611,22.414162 25.9959639,22.6203369 25.5279479,22.6203369 C25.0828739,22.6203369 24.7398916,22.4703915 24.4990011,22.1705007 C24.2581105,21.8706098 24.1376652,21.5168324 24.1376652,21.1091683 C24.1376652,20.7108758 24.2546692,20.3723271 24.4886772,20.0935224 C24.7226852,19.8147176 25.0691087,19.6753153 25.5279479,19.6753153 C25.7390139,19.6753153 25.9558154,19.7233446 26.1783524,19.8194034 C26.4008894,19.9154622 26.594749,20.0384643 26.7599311,20.1884097 L26.7599311,20.1884097 L27.3174207,19.2606225 C27.0834127,19.0263328 26.8035208,18.849444 26.477745,18.7299563 C26.1519692,18.6104685 25.8170166,18.5507246 25.4728872,18.5507246 C24.720391,18.5507246 24.1021052,18.7967288 23.6180298,19.2887372 C23.1339545,19.7807456 22.8919168,20.3969276 22.8919168,21.137283 C22.8919168,21.8963817 23.1270719,22.5207638 23.5973821,23.0104293 C24.0676922,23.5000948 24.6928606,23.7449275 25.4728872,23.7449275 Z" id="БОНУС" fill="#FFFFFF" fill-rule="nonzero"></path>
                            </g>
                        </g>
                    </g>
                </g>
            </g>
        </g>
    </g>
</svg>