<?xml version="1.0" encoding="UTF-8"?>
<svg width="27px" height="28px" viewBox="0 0 25 24" version="1.1" xmlns="http://www.w3.org/2000/svg" xmlns:xlink="http://www.w3.org/1999/xlink">
    <defs>
        <linearGradient x1="66.6708333%" y1="16.67%" x2="41.6708333%" y2="75%" id="linearGradient-1">
            <stop stop-color="#37AEE2" offset="0%"></stop>
            <stop stop-color="#1E96C8" offset="100%"></stop>
        </linearGradient>
    </defs>
    <g id="Symbols" stroke="none" stroke-width="1" fill="none" fill-rule="evenodd">
        <g id="header" transform="translate(-282.000000, -20.000000)" fill-rule="nonzero">
            <g id="{row}" transform="translate(12.500000, 20.000000)">
                <g id="Telegram" transform="translate(269.625000, 0.000000)">
                    <path d="M12,24 C18.6274,24 24,18.6274 24,12 C24,5.3726 18.6274,0 12,0 C5.3726,0 0,5.3726 0,12 C0,18.6274 5.3726,24 12,24 Z" id="Shape" fill="url(#linearGradient-1)"></path>
                    <path d="M4.46911,12.587 C5.8719,11.8143 7.4378,11.1694 8.9009,10.5212 C11.418,9.4595 13.9451,8.4162 16.4977,7.4449 C16.99435,7.2794 17.8867,7.11755 17.9742,7.85355 C17.9263,8.89535 17.7292,9.93105 17.594,10.96675 C17.25085,13.24435 16.85425,15.51415 16.4675,17.78425 C16.33425,18.5404 15.387,18.93185 14.7809,18.44795 C13.3243,17.46405 11.8565,16.48975 10.4185,15.48305 C9.94745,15.0044 10.38425,14.31705 10.80495,13.97525 C12.00465,12.79295 13.27695,11.78845 14.41395,10.54505 C14.72065,9.8044 13.81445,10.4286 13.51555,10.61985 C11.87315,11.75165 10.27095,12.95255 8.53935,13.94725 C7.65485,14.43415 6.62395,14.01805 5.73985,13.74635 C4.94714,13.41815 3.78553,13.0875 4.46903,12.58705 L4.46911,12.587 Z" id="Shape" fill="#fff"></path>
                </g>
            </g>
        </g>
    </g>
</svg>
