<?xml version="1.0" encoding="utf-8"?>
<!-- Generator: Adobe Illustrator 24.2.0, SVG Export Plug-In . SVG Version: 6.00 Build 0)  -->
<svg version="1.1" id="Слой_1" xmlns="http://www.w3.org/2000/svg" xmlns:xlink="http://www.w3.org/1999/xlink" x="0px" y="0px"
	 viewBox="0 0 24 24" style="enable-background:new 0 0 24 24;" xml:space="preserve">
<style type="text/css">
	.st0{fill:url(#Shape_2_);}
	.st1{fill:#FFFFFF;}
</style>
<g id="Symbols">
	<g id="header" transform="translate(-282.000000, -20.000000)">
		<g id="_x7B_row_x7D_" transform="translate(12.500000, 20.000000)">
			<g id="Telegram" transform="translate(269.625000, 0.000000)">
				
					<linearGradient id="Shape_2_" gradientUnits="userSpaceOnUse" x1="-644.1635" y1="382.5805" x2="-644.395" y2="382.0404" gradientTransform="matrix(25.92 0 0 -25.92 16712.1113 9920.2803)">
					<stop  offset="0" style="stop-color:#37AEE2"/>
					<stop  offset="1" style="stop-color:#1E96C8"/>
				</linearGradient>
				<path id="Shape" class="st0" d="M11.9,24c6.6,0,12-5.4,12-12s-5.4-12-12-12s-12,5.4-12,12S5.2,24,11.9,24z"/>
				<path id="Shape_1_" class="st1" d="M4.3,12.6c1.4-0.8,3-1.4,4.4-2.1c2.5-1.1,5-2.1,7.6-3.1c0.5-0.2,1.4-0.3,1.5,0.4
					c0,1-0.2,2.1-0.4,3.1c-0.3,2.3-0.7,4.5-1.1,6.8c-0.1,0.8-1.1,1.1-1.7,0.7c-1.5-1-2.9-2-4.4-3c-0.5-0.5,0-1.2,0.4-1.5
					c1.2-1.2,2.5-2.2,3.6-3.4c0.3-0.7-0.6-0.1-0.9,0.1c-1.6,1.1-3.2,2.3-5,3.3c-0.9,0.5-1.9,0.1-2.8-0.2C4.8,13.4,3.7,13.1,4.3,12.6
					L4.3,12.6z"/>
			</g>
		</g>
	</g>
</g>
</svg>
