<?xml version="1.0" encoding="UTF-8"?>
<svg width="113px" height="21px" viewBox="0 0 113 21" version="1.1" xmlns="http://www.w3.org/2000/svg" xmlns:xlink="http://www.w3.org/1999/xlink">
    <title>logo</title>
    <g id="Symbols" stroke="none" stroke-width="1" fill="none" fill-rule="evenodd">
        <g id="header" transform="translate(-132.000000, -22.000000)" fill-rule="nonzero">
            <g id="{row}" transform="translate(12.500000, 20.000000)">
                <g id="{image-fixed}-logo" transform="translate(119.500000, 2.000000)">
                    <path d="M2.40030195,3.80247813 L4.70414083,13.6931487 L10.6798404,3.80247813 L12.7682033,3.80247813 L2.08836292,21 L0,21 L3.26345855,15.8566569 L0.215475958,3.80247813 L2.40030195,3.80247813 Z M30.2894053,3.80369291 L28.9451861,10.5055879 C28.8249205,11.0413022 28.7773153,11.5758017 28.7773153,12.111516 C28.7773153,13.8802235 29.7131324,15.2759961 31.7776928,15.2759961 C33.0492515,15.2759961 34.1779947,14.9030612 35.1376144,14.0891642 C36.4304702,12.9849368 36.7035734,11.7640914 36.9415992,10.5869776 L36.9415992,10.5869776 L38.5426357,11.4846939 L37.5366636,16.5332847 L35.8567028,16.5332847 L36.1686418,14.973518 L36.1210367,14.973518 C35.4495534,15.6720117 33.9850686,16.8357629 31.4895563,16.8357629 C30.4334736,16.8357629 29.2571252,16.6025267 28.2975055,15.6950923 C27.1938176,14.6479592 27.0021442,13.2521866 27.0021442,12.2050534 C27.0021442,11.6462585 27.0497494,11.0874636 27.170015,10.5055879 L27.170015,10.5055879 L28.5142342,3.80369291 L30.2894053,3.80369291 Z M19.6083122,3.5 C20.664395,3.5 22.4395661,3.68586006 23.8313904,4.98809524 C25.3196779,6.3850826 25.4875487,8.19995141 25.4875487,9.36370262 C25.4875487,12.0155491 24.4552685,13.7380952 23.2313149,14.9018465 C21.8394906,16.2052964 20.0868693,16.8333333 17.8794935,16.8333333 C16.752003,16.8333333 15.0720422,16.6474733 13.7040204,15.3440233 C12.8158085,14.5070457 12.0240596,13.1100583 12.0240596,10.9696307 C12.0240596,8.4101069 13.1277475,6.52478134 14.4719667,5.3148688 C16.0316619,3.89601555 17.8080857,3.5 19.6083122,3.5 Z M19.5118491,5.05976676 C17.7592278,5.05976676 16.4638665,5.66472303 15.5280494,6.57215743 C14.4481641,7.61929057 13.8004835,9.10860058 13.8004835,10.7376093 C13.8004835,12.180758 14.1838302,13.3675899 14.9041714,14.1122449 C15.8875936,15.1362974 17.2080103,15.2759961 17.9759565,15.2759961 C19.8964487,15.2759961 21.2406679,14.5775024 22.0562193,13.7866861 C22.9444313,12.925413 23.7111248,11.4822643 23.7111248,9.59815355 C23.7111248,7.87560739 23.1361046,6.80539359 22.5598317,6.20043732 C21.6002121,5.1994655 20.303598,5.05976676 19.5118491,5.05976676 Z" id="Combined-Shape" fill="#0E0E0E"></path>
                    <path d="M43.7146348,4.17344173 C42.0004321,4.17344173 40.4043216,4.80213328 39.1898357,6.03762768 L39.1425988,6.03762768 L39.4521249,4.47623515 L37.785159,4.47623515 L36.7906977,9.49603919 L38.3830789,10.3959072 C38.6180204,9.22729484 38.8952265,8.01733722 40.1656509,6.9229032 C40.9748938,6.22368147 42.0712874,5.73483427 43.523201,5.73483427 C45.5954098,5.73483427 46.5239881,7.15638246 46.5239881,8.90261274 C46.5239881,9.43888541 46.4767512,9.97394205 46.3574158,10.5102147 L45.0235946,17.2203113 L46.7862773,17.2203113 L48.1200986,10.5102147 C48.2394339,9.97394205 48.2866709,9.43888541 48.2866709,8.90261274 C48.2866709,6.99221736 47.5955202,5.92088806 46.976468,5.31530123 C45.9285544,4.31328608 44.5947331,4.17344173 43.7146348,4.17344173 Z M66.5884889,4.45313043 L60.1344347,14.9134876 L58.014989,4.45313043 L55.8483063,4.45313043 L58.8018565,17.1959905 L60.7074931,17.1959905 L68.6619408,4.45313043 L66.5884889,4.45313043 Z M49.8703506,17.1959905 L51.6330333,17.1959905 L54.157722,4.45313043 L52.3962824,4.45313043 L49.8703506,17.1959905 Z M112.904283,11.4416997 C112.975138,11.0221666 113,10.6026336 113,10.1843166 C113,8.22771176 112.404566,6.73684942 111.499606,5.75793899 C110.285121,4.43002571 108.73749,4.15033702 107.356432,4.15033702 C104.831743,4.15033702 103.11754,5.05871725 102.141725,5.92088806 C100.569233,7.29501077 99.7599902,9.46199013 99.7599902,11.6289695 C99.7599902,13.3058856 100.308187,14.6569036 101.331239,15.7525537 C102.831633,17.3370509 104.47498,17.5 105.713084,17.5 C107.023287,17.5 108.78597,17.2677368 110.357219,16.0553471 C111.334277,15.3099159 112.119902,14.2385866 112.596,13.0505177 L110.690364,13.0505177 C110.451693,13.5867904 110.022831,14.2616913 109.213588,14.8672782 C108.355866,15.4971857 107.260715,15.9386075 105.83242,15.9386075 C104.92746,15.9386075 103.689356,15.7756584 102.712297,14.8429574 C101.879436,14.0513168 101.354858,12.7927177 101.402095,11.4416997 L112.904283,11.4416997 Z M103.260494,7.06153151 C104.118217,6.29299562 105.309085,5.71051352 106.999669,5.71051352 C108.261392,5.71051352 109.309305,6.05951636 110.167028,7.10774095 C110.738844,7.8300674 111.119225,8.8077618 111.119225,9.88030714 L101.664384,9.88030714 C101.997528,8.34323536 102.855251,7.43485512 103.260494,7.06153151 Z M90.257912,5.89778334 L90.6146751,4.17465777 C89.2336169,4.12844834 87.7332233,4.54676534 86.6132112,5.61931068 L86.5659743,5.61931068 L86.7797835,4.45434647 L85.1140607,4.45434647 L82.589372,17.1972066 L84.3520547,17.1972066 L85.9245467,9.25283163 C86.0675005,8.5536099 86.3049282,7.73886457 87.0669342,7.01653811 C87.9010387,6.24678619 89.1155246,5.82725314 90.257912,5.89778334 Z M75.4702718,4.15033702 C72.9455831,4.15033702 71.2313803,5.05871725 70.2555651,5.92088806 C68.6830731,7.29501077 67.8738302,9.46199013 67.8738302,11.6289695 C67.8738302,13.3058856 68.422027,14.6569036 69.4450791,15.7525537 C70.9454727,17.3370509 72.58882,17.5 73.8269244,17.5 C75.1371273,17.5 76.89981,17.2677368 78.4710589,16.0553471 C79.4481172,15.3099159 80.2337417,14.2385866 80.70984,13.0505177 L78.8042035,13.0505177 C78.5655327,13.5867904 78.1366713,14.2616913 77.3274284,14.8672782 C76.4709485,15.4971857 75.3745549,15.9386075 73.9462598,15.9386075 C73.0413,15.9386075 71.8031956,15.7756584 70.8261373,14.8429574 C69.9932759,14.0513168 69.4686976,12.7927177 69.5159345,11.4416997 L81.018123,11.4416997 C81.0889784,11.0221666 81.11384,10.6026336 81.11384,10.1843166 C81.11384,8.22771176 80.5184062,6.73684942 79.6134464,5.75793899 C78.3989605,4.43002571 76.85133,4.15033702 75.4702718,4.15033702 Z M69.7782237,9.88152317 C70.1113682,8.34323536 70.9690911,7.43485512 71.3743341,7.06274755 C72.232057,6.29421166 73.4229245,5.71172955 75.1135088,5.71172955 C76.3752316,5.71172955 77.4231453,6.0607324 78.2808682,7.10895699 C78.8526835,7.83128344 79.2330649,8.80897783 79.2330649,9.88152317 L69.7782237,9.88152317 Z M95.2115726,4.15033702 C94.0928036,4.15033702 93.1878438,4.43002571 92.4258378,5.03561254 C91.4500226,5.80414843 91.0447796,6.87547773 91.0447796,7.87749288 C91.0447796,9.85720242 92.5687916,10.7193732 93.8541329,11.2556459 C94.2829944,11.4416997 94.7354743,11.6046487 95.1158557,11.8843374 C95.7349079,12.3269752 95.9971971,12.8158224 95.9971971,13.5381488 C95.9971971,14.8198527 95.1394742,15.9373914 93.4252714,15.9373914 C91.8055425,15.9373914 91.2349703,14.8891668 91.2349703,13.8871517 C91.2349703,13.7473073 91.2585888,13.5843583 91.2822072,13.4445139 L89.5207676,13.4445139 C89.4971491,13.6305677 89.4735307,13.7935168 89.4735307,13.9807866 C89.4735307,14.796748 89.7594383,15.7744424 90.2827736,16.3569245 C90.7824904,16.9394066 91.7595487,17.498784 93.2835607,17.498784 C94.5216651,17.498784 95.5459603,17.1266764 96.2607294,16.567299 C97.0463538,15.9386075 97.7611229,14.8660621 97.7611229,13.3058856 C97.7611229,11.0695921 96.0941571,10.3241609 95.022625,9.90462789 C94.0468098,9.50819957 92.8074623,9.08988257 92.8074623,7.785074 C92.8074623,6.73684942 93.450133,5.71172955 94.9753881,5.71172955 C95.3321511,5.71172955 96.7616893,5.71172955 96.7616893,7.17948718 C96.7616893,7.31933153 96.7380708,7.48228059 96.7144524,7.62212494 L98.4771351,7.62212494 C98.5007535,7.45917587 98.524372,7.29622681 98.524372,7.13327774 C98.524372,6.13126259 98.2148459,5.4332569 97.7151291,4.96751442 C97.2353015,4.52244458 96.449677,4.15033702 95.2115726,4.15033702 Z M52.6834331,0 L52.065624,3.3295115 L55.3224849,1.66475575 L55.3212418,1.66475575 L55.3224849,1.66475575 L52.6834331,0 Z" id="Shape" fill="#0350A0"></path>
                </g>
            </g>
        </g>
    </g>
</svg>